# xmcd
#
# Track frame offsets:
#	180
#	18830
#	39136
#	62385
#	93645
#	116972
#	139764
#	163778
#	192372
#	215462
#	243385
#	264700
#	297202
#
# Disc length: 4416
#
# Revision: 1
# Processed by: cddbd v1.5.1PL0 Copyright (c) Steve Scherf et al.
# Submitted via: dBpowerAMP V4.0
# Normalized: r0:TDELIM( - )
#
DISCID=ba113e0d
DTITLE=Various Artist - Singles
DYEAR=1900
DGENRE=
TTITLE0=Shalamar - Second Time Around
TTITLE1=Midnight Star - Close To Midnight
TTITLE2=Shalamar - I Owe You One
TTITLE3=Carrie Lucas - Career Girl
TTITLE4=Midnight Star - Wet My Whistle
TTITLE5=Sylvers - Come Back, Lover Come Back
TTITLE6=Gladys Knight - Love Overboard
TTITLE7=Levert - Casanova
TTITLE8=Klymaxx - Never Underestimate The Power Of A Woman
TTITLE9=Lakeside - Fantastic Voyage
TTITLE10=Whispers - Rock Steady
TTITLE11=Whispers - I Can Make It Better
TTITLE12=Whispers - And The Beat Goes On
EXTD=
EXTT0=
EXTT1=
EXTT2=
EXTT3=
EXTT4=
EXTT5=
EXTT6=
EXTT7=
EXTT8=
EXTT9=
EXTT10=
EXTT11=
EXTT12=
PLAYORDER=
